<?xml version="1.0" encoding="utf-8"?>
<!-- Generator: Adobe Illustrator 16.0.4, SVG Export Plug-In . SVG Version: 6.00 Build 0)  -->
<!DOCTYPE svg PUBLIC "-//W3C//DTD SVG 1.1//EN" "http://www.w3.org/Graphics/SVG/1.1/DTD/svg11.dtd">
<svg version="1.1" id="Layer_1" xmlns="http://www.w3.org/2000/svg" xmlns:xlink="http://www.w3.org/1999/xlink" x="0px" y="0px"
	 width="12px" height="20px" viewBox="0 0 12 20" enable-background="new 0 0 12 20" xml:space="preserve">
<g>
	<path d="M9.312,15.869c0.827,0,1.5,0.673,1.5,1.5s-0.673,1.5-1.5,1.5s-1.5-0.673-1.5-1.5S8.485,15.869,9.312,15.869 M9.312,14.869
		c-1.381,0-2.5,1.119-2.5,2.5s1.119,2.5,2.5,2.5s2.5-1.119,2.5-2.5S10.693,14.869,9.312,14.869L9.312,14.869z"/>
</g>
<g>
	<path d="M2.5,8.244c0.827,0,1.5,0.673,1.5,1.5s-0.673,1.5-1.5,1.5S1,10.571,1,9.744S1.673,8.244,2.5,8.244 M2.5,7.244
		c-1.381,0-2.5,1.119-2.5,2.5s1.119,2.5,2.5,2.5S5,11.125,5,9.744S3.881,7.244,2.5,7.244L2.5,7.244z"/>
</g>
<line fill="none" stroke="#000000" stroke-miterlimit="10" x1="0" y1="19.869" x2="12" y2="7.244"/>
</svg>
