<?xml version="1.0" encoding="utf-8"?>
<!-- Generator: Adobe Illustrator 16.0.4, SVG Export Plug-In . SVG Version: 6.00 Build 0)  -->
<!DOCTYPE svg PUBLIC "-//W3C//DTD SVG 1.1//EN" "http://www.w3.org/Graphics/SVG/1.1/DTD/svg11.dtd">
<svg version="1.1" id="Layer_1" xmlns="http://www.w3.org/2000/svg" xmlns:xlink="http://www.w3.org/1999/xlink" x="0px" y="0px"
	 width="12px" height="20px" viewBox="0 0 12 20" enable-background="new 0 0 12 20" xml:space="preserve">
<g>
	<path d="M3,9.432c0,0.828-0.671,1.5-1.5,1.5l0,0c-0.829,0-1.5-0.672-1.5-1.5l0,0c0-0.829,0.671-1.5,1.5-1.5l0,0
		C2.329,7.932,3,8.603,3,9.432L3,9.432z"/>
	<path d="M6,9.432c0,0.828-0.672,1.5-1.5,1.5l0,0c-0.829,0-1.5-0.672-1.5-1.5l0,0c0-0.829,0.671-1.5,1.5-1.5l0,0
		C5.328,7.932,6,8.603,6,9.432L6,9.432z"/>
	<path d="M9,9.432c0,0.828-0.672,1.5-1.5,1.5l0,0c-0.828,0-1.5-0.672-1.5-1.5l0,0c0-0.829,0.672-1.5,1.5-1.5l0,0
		C8.328,7.932,9,8.603,9,9.432L9,9.432z"/>
	<path d="M12,9.432c0,0.828-0.672,1.5-1.5,1.5l0,0c-0.828,0-1.5-0.672-1.5-1.5l0,0c0-0.829,0.672-1.5,1.5-1.5l0,0
		C11.328,7.932,12,8.603,12,9.432L12,9.432z"/>
</g>
<g>
	<path d="M4.5,12.432c0,0.828-0.672,1.5-1.5,1.5l0,0c-0.829,0-1.5-0.672-1.5-1.5l0,0c0-0.828,0.671-1.5,1.5-1.5l0,0
		C3.828,10.932,4.5,11.604,4.5,12.432L4.5,12.432z"/>
	<path d="M7.5,12.432c0,0.828-0.672,1.5-1.5,1.5l0,0c-0.828,0-1.5-0.672-1.5-1.5l0,0c0-0.828,0.672-1.5,1.5-1.5l0,0
		C6.828,10.932,7.5,11.604,7.5,12.432L7.5,12.432z"/>
	<path d="M10.5,12.432c0,0.828-0.672,1.5-1.5,1.5l0,0c-0.828,0-1.5-0.672-1.5-1.5l0,0c0-0.828,0.672-1.5,1.5-1.5l0,0
		C9.828,10.932,10.5,11.604,10.5,12.432L10.5,12.432z"/>
</g>
<g>
	<path d="M6,15.432c0,0.828-0.672,1.5-1.5,1.5l0,0c-0.828,0-1.5-0.672-1.5-1.5l0,0c0-0.828,0.672-1.5,1.5-1.5l0,0
		C5.328,13.932,6,14.604,6,15.432L6,15.432z"/>
	<path d="M9,15.432c0,0.828-0.672,1.5-1.5,1.5l0,0c-0.828,0-1.5-0.672-1.5-1.5l0,0c0-0.828,0.672-1.5,1.5-1.5l0,0
		C8.328,13.932,9,14.604,9,15.432L9,15.432z"/>
</g>
<path d="M7.5,18.432c0,0.828-0.672,1.5-1.5,1.5l0,0c-0.828,0-1.5-0.672-1.5-1.5l0,0c0-0.828,0.672-1.5,1.5-1.5l0,0
	C6.828,16.932,7.5,17.604,7.5,18.432L7.5,18.432z"/>
<g>
	<path d="M4.5,6.432c0,0.829-0.671,1.5-1.5,1.5l0,0c-0.829,0-1.5-0.671-1.5-1.5l0,0c0-0.829,0.671-1.5,1.5-1.5l0,0
		C3.829,4.932,4.5,5.603,4.5,6.432L4.5,6.432z"/>
	<path d="M7.5,6.432c0,0.829-0.671,1.5-1.5,1.5l0,0c-0.829,0-1.5-0.671-1.5-1.5l0,0c0-0.829,0.671-1.5,1.5-1.5l0,0
		C6.829,4.932,7.5,5.603,7.5,6.432L7.5,6.432z"/>
	<path d="M10.5,6.432c0,0.829-0.672,1.5-1.5,1.5l0,0c-0.828,0-1.5-0.671-1.5-1.5l0,0c0-0.829,0.672-1.5,1.5-1.5l0,0
		C9.828,4.932,10.5,5.603,10.5,6.432L10.5,6.432z"/>
</g>
<rect x="3.69" y="-0.106" transform="matrix(0.8203 -0.5719 0.5719 0.8203 -1.2947 3.0398)" width="1.001" height="7.373"/>
<ellipse transform="matrix(0.8542 -0.52 0.52 0.8542 -0.0907 4.1277)" cx="7.314" cy="2.226" rx="3.5" ry="1.354"/>
</svg>
